# xmcd
#
# Track frame offsets: 
#        150
#        29304
#        55502
#        78148
#        103670
#        130746
#        157126
#        179337
#        207145
#        226578
#        254333
#        276434
#        307212
#        327307
#
# Disc length: 4771 seconds
#
# Revision: 2
# Processed by: cddbd v1.5.2PL0 Copyright (c) Steve Scherf et al.
# Submitted via: ExactAudioCopy v1.0b3
#
DISCID=bb12a10e
DTITLE=島津亜矢 - 極めつけ　島津亜矢の名作歌謡劇場
DYEAR=2004
DGENRE=Other
TTITLE0=お梅　川口松太郎「明治一代女」より
TTITLE1=関の弥太っぺ
TTITLE2=おりょう「坂本龍馬」より
TTITLE3=一本刀土俵入り
TTITLE4=大忠臣蔵
TTITLE5=お蔦　泉鏡花「婦系図」より
TTITLE6=瞼の母
TTITLE7=お梶　菊池寛「籐十郎の恋」より
TTITLE8=花の幡随院
TTITLE9=お初　近松門左衛門「曽根崎心中」より
TTITLE10=沓掛時次郎
TTITLE11=おさん　近松門左衛門「大経師昔暦」より
TTITLE12=小鉄の女房
TTITLE13=梅川　近松門左衛門「冥途の飛脚」より
EXTD=
EXTT0=
EXTT1=
EXTT2=
EXTT3=
EXTT4=
EXTT5=
EXTT6=
EXTT7=
EXTT8=
EXTT9=
EXTT10=
EXTT11=
EXTT12=
EXTT13=
PLAYORDER=
